<svg width="462" height="435" viewBox="0 0 462 435" fill="none" xmlns="http://www.w3.org/2000/svg">
<path d="M59.0458 111.196L38.3906 156.023M401.917 327.576L422.572 282.749" stroke="#39FF14" stroke-width="8.26277" stroke-linecap="round" stroke-linejoin="round"/>
<path d="M401.481 327.372C387.229 358.302 294.386 345.051 194.118 297.732C93.8486 250.414 24.1393 186.956 38.3915 156.024" stroke="#39FF14" stroke-width="8.26277" stroke-linecap="round" stroke-linejoin="round"/>
<path d="M215.187 253.791C315.451 301.106 408.291 314.376 422.551 283.429C436.81 252.483 367.089 189.038 266.825 141.722C166.561 94.406 73.7207 81.1362 59.4613 112.083C45.2019 143.03 114.923 206.474 215.187 253.791Z" stroke="#39FF14" stroke-width="8.26277" stroke-linecap="round" stroke-linejoin="round"/>
<path fill-rule="evenodd" clip-rule="evenodd" d="M186.452 156.793C183.773 155.229 180.835 155.353 179.849 157.083L176.63 162.724C175.643 164.457 177.069 166.979 179.749 168.545L187.873 173.291L180.321 186.528C179.833 187.383 179.916 188.571 180.513 189.735L184.656 197.525C185.259 198.692 186.181 199.72 187.512 200.497L227.114 223.637C228.441 224.411 229.716 224.832 231.01 224.774L239.819 224.386C241.117 224.33 242.101 223.929 242.588 223.074L250.21 209.714L272.609 222.801L269.028 229.079C268.731 229.551 268.162 229.831 267.439 229.864C266.714 229.895 265.893 229.675 265.142 229.249L262.336 227.609C259.679 226.057 256.568 226.199 255.594 227.905L252.113 234.01C251.067 235.842 252.573 238.512 255.225 240.062L269.02 248.122C270.346 248.897 271.622 249.318 272.92 249.262L281.729 248.874C283.028 248.818 284.011 248.418 284.499 247.563L292.122 234.203L297.028 237.069C299.711 238.637 302.583 238.628 303.571 236.896L306.789 231.254C307.025 230.843 307.131 230.363 307.105 229.842C307.077 229.32 306.917 228.768 306.632 228.215C306.349 227.664 305.946 227.123 305.448 226.625C304.951 226.127 304.368 225.682 303.732 225.316L298.826 222.45L306.375 209.216C306.863 208.361 306.782 207.173 306.183 206.008L302.043 198.216C301.438 197.051 300.517 196.024 299.186 195.247L260.497 172.64C259.171 171.866 257.896 171.446 256.603 171.502L247.793 171.893C246.494 171.947 245.511 172.349 245.024 173.204L237.402 186.564L214.093 172.944L217.675 166.666C217.97 166.194 218.538 165.914 219.261 165.881C219.984 165.85 220.805 166.07 221.556 166.495L224.194 168.036C226.847 169.585 229.958 169.445 230.931 167.739L234.413 161.634C235.459 159.801 233.953 157.131 231.301 155.581L217.678 147.621C216.351 146.846 215.076 146.426 213.778 146.479L204.968 146.87C203.673 146.928 202.685 147.326 202.198 148.181L194.576 161.541L186.452 156.793ZM207.385 184.692L203.873 190.847C203.247 191.944 204.085 193.575 205.602 194.46L223.23 204.761C223.304 204.803 223.376 204.845 223.447 204.879C224.91 205.636 226.582 205.516 227.184 204.473L230.699 198.314L207.385 184.692ZM256.914 197.964L279.312 211.051L282.823 204.897C283.451 203.799 282.612 202.169 281.096 201.283L264.382 191.516C264.31 191.476 264.239 191.435 264.165 191.398C262.702 190.641 261.03 190.761 260.433 191.806L256.914 197.964Z" fill="#39FF14"/>
<path d="M33.3445 224.977C-36.6553 169.706 7.96057 383.785 176.421 432.829C187.108 435.941 39.4981 376.779 33.3445 224.977Z" fill="#39FF14" stroke="#39FF14" stroke-width="1.1804"/>
<path d="M428.244 209.524C498.244 264.795 453.627 50.7152 285.169 1.67181C274.48 -1.43986 422.091 57.7216 428.244 209.524Z" fill="#39FF14" stroke="#39FF14" stroke-width="1.1804"/>
<path d="M55.002 126.5L71.502 153L124.502 203L263.841 274.799L339.995 298.932H413.84L395.379 339.412L353.002 343.5L312.303 339.412L189.227 298.932L84.6121 232.762L37.6895 174.377L41.5356 151.023L55.002 126.5Z" fill="#39FF14"/>
</svg>
